# xmcd CD database file
#
# Track frame offsets:
#	150
#	13095
#	36524
#	61061
#	90481
#	108111
#	131986
#	149240
#	177612
#	202751
#	228604
#
# Disc length: 3428 seconds
#
# Revision: 1
# Processed by: cddbd v1.5.2PL0 Copyright (c) Steve Scherf et al.
# Submitted via: CDex 1.51
#
DISCID=9f0d620b
DTITLE=Avishai Cohen Trio - Gently disturbed
DYEAR=1900
DGENRE=Jazz
TTITLE0=01. Seattle
TTITLE1=02.Chutzpan
TTITLE2=03. Lo Baiom Velo Balyla
TTITLE3=04. Pinzin Kinzin
TTITLE4=05. Puncha Puncha
TTITLE5=06. Eleven wives
TTITLE6=07. Gently disturbed
TTITLE7=08. The ever evolving etude
TTITLE8=09. Variation in G Minor
TTITLE9=10. Umray
TTITLE10=11. Structure in emotion
EXTD=
EXTT0=
EXTT1=
EXTT2=
EXTT3=
EXTT4=
EXTT5=
EXTT6=
EXTT7=
EXTT8=
EXTT9=
EXTT10=
PLAYORDER=
